# xmcd
#
# Track frame offsets: 
#        150
#        23286
#        44990
#        62691
#        80798
#        94972
#        110005
#        130454
#        148122
#        177117
#        195589
#        216061
#        236365
#        300544
#        334223
#
# Disc length: 4701 seconds
#
# Revision: 3
# Processed by: cddbd v1.5.2PL0 Copyright (c) Steve Scherf et al.
# Submitted via: ExactAudioCopy v0.95a5
#
DISCID=da125b0f
DTITLE=Bembeya Jazz National - The Syliphone Years CD1
DYEAR=2007
DGENRE=Guinee
TTITLE0=Republique Guinee
TTITLE1=Sabor de guajara
TTITLE2=Armee Guineenne
TTITLE3=Guantanamera-seyni
TTITLE4=Dembaty galant
TTITLE5=Air Guinee
TTITLE6=Guinee hety horemoun
TTITLE7=Montuno de la sierra
TTITLE8=Waraba
TTITLE9=Dagna
TTITLE10=Doni doni
TTITLE11=Camera mouso
TTITLE12=Super tentemba
TTITLE13=Mami wati
TTITLE14=Alalake
EXTD=YEAR: 2007
EXTT0=
EXTT1=
EXTT2=
EXTT3=
EXTT4=
EXTT5=
EXTT6=
EXTT7=
EXTT8=
EXTT9=
EXTT10=
EXTT11=
EXTT12=
EXTT13=
EXTT14=
PLAYORDER=
